<?xml version="1.0" encoding="iso-8859-1"?>
<!-- Generator: Adobe Illustrator 19.0.0, SVG Export Plug-In . SVG Version: 6.00 Build 0)  -->
<svg xmlns="http://www.w3.org/2000/svg" xmlns:xlink="http://www.w3.org/1999/xlink" version="1.1" id="Capa_1" x="0px" y="0px" viewBox="0 0 511.299 511.299" style="enable-background:new 0 0 511.299 511.299;" xml:space="preserve" width="512px" height="512px">
<g>
	<g>
		<path d="M387.483,435.088H3.995c-2.208,0-3.994,1.786-3.994,3.995v55.925c0,2.208,1.786,3.995,3.994,3.995h383.488    c2.208,0,3.994-1.788,3.994-3.995v-55.925C391.477,436.874,389.691,435.088,387.483,435.088z M383.488,491.012H7.99v-47.936    h375.498V491.012z" fill="#1e2d33"/>
	</g>
</g>
<g>
	<g>
		<path d="M443.409,379.163H59.921c-2.208,0-3.995,1.786-3.995,3.994v55.926c0,2.207,1.787,3.994,3.995,3.994h383.488    c2.207,0,3.994-1.787,3.994-3.994v-55.926C447.403,380.949,445.616,379.163,443.409,379.163z M439.414,435.087H63.915V387.15    h375.499V435.087z" fill="#1e2d33"/>
	</g>
</g>
<g>
	<g>
		<path d="M387.483,323.237H3.995c-2.208,0-3.994,1.787-3.994,3.994v55.926c0,2.208,1.786,3.994,3.994,3.994h383.488    c2.208,0,3.994-1.786,3.994-3.994v-55.926C391.477,325.024,389.691,323.237,387.483,323.237z M383.488,379.163H7.99v-47.937    h375.498V379.163z" fill="#1e2d33"/>
	</g>
</g>
<g>
	<g>
		<path d="M443.409,267.311H59.921c-2.208,0-3.995,1.787-3.995,3.995v55.925c0,2.209,1.787,3.995,3.995,3.995h383.488    c2.207,0,3.994-1.786,3.994-3.995v-55.925C447.403,269.098,445.616,267.311,443.409,267.311z M439.414,323.237H63.915v-47.936    h375.499V323.237z" fill="#1e2d33"/>
	</g>
</g>
<g>
	<g>
		<path d="M454.222,260.493c-1.56-1.561-4.088-1.561-5.649,0l-7.989,7.989c-1.56,1.56-1.56,4.087,0,5.648    c0.78,0.78,1.803,1.171,2.825,1.171c1.021,0,2.043-0.39,2.824-1.171l7.989-7.989C455.782,264.581,455.782,262.054,454.222,260.493    z" fill="#1e2d33"/>
	</g>
</g>
<g>
	<g>
		<path d="M78.723,252.503c-1.56-1.561-4.088-1.561-5.648,0l-15.979,15.979c-1.56,1.56-1.56,4.087,0,5.648    c0.781,0.78,1.803,1.171,2.825,1.171c1.021,0,2.043-0.39,2.823-1.171l15.979-15.979C80.284,256.591,80.284,254.063,78.723,252.503    z" fill="#1e2d33"/>
	</g>
</g>
<g>
	<g>
		<path d="M459.387,251.333H75.899c-2.208,0-3.995,1.787-3.995,3.995c0,2.208,1.787,3.994,3.995,3.994h383.488    c2.207,0,3.994-1.786,3.994-3.994C463.381,253.12,461.594,251.333,459.387,251.333z" fill="#1e2d33"/>
	</g>
</g>
<g>
	<g>
		<path d="M22.799,308.428c-1.561-1.561-4.088-1.561-5.649,0L1.171,324.407c-1.561,1.56-1.561,4.088,0,5.649    c0.78,0.78,1.802,1.17,2.824,1.17c1.022,0,2.044-0.389,2.824-1.17l15.98-15.98C24.359,312.516,24.359,309.989,22.799,308.428z" fill="#1e2d33"/>
	</g>
</g>
<g>
	<g>
		<path d="M51.931,307.259H19.973c-2.208,0-3.994,1.786-3.994,3.994s1.786,3.995,3.994,3.995h31.958    c2.208,0,3.994-1.787,3.994-3.995C55.925,309.045,54.139,307.259,51.931,307.259z" fill="#1e2d33"/>
	</g>
</g>
<g>
	<g>
		<path d="M22.799,420.28c-1.561-1.56-4.088-1.56-5.649,0L1.171,436.259c-1.561,1.559-1.561,4.087,0,5.648    c0.78,0.78,1.802,1.17,2.824,1.17c1.022,0,2.044-0.39,2.824-1.17l15.98-15.978C24.359,424.369,24.359,421.841,22.799,420.28z" fill="#1e2d33"/>
	</g>
</g>
<g>
	<g>
		<path d="M51.931,419.109H19.973c-2.208,0-3.994,1.786-3.994,3.995c0,2.207,1.786,3.994,3.994,3.994h31.958    c2.208,0,3.994-1.787,3.994-3.994C55.925,420.895,54.139,419.109,51.931,419.109z" fill="#1e2d33"/>
	</g>
</g>
<g>
	<g>
		<path d="M326.393,260.493c-1.56-1.561-4.088-1.561-5.649,0l-7.989,7.989c-1.561,1.56-1.561,4.087,0,5.648    c0.78,0.78,1.803,1.171,2.824,1.171c1.022,0,2.045-0.39,2.824-1.171l7.99-7.989C327.953,264.581,327.953,262.054,326.393,260.493z    " fill="#1e2d33"/>
	</g>
</g>
<g>
	<g>
		<path d="M198.563,260.493c-1.56-1.561-4.087-1.561-5.648,0l-7.989,7.989c-1.561,1.56-1.561,4.087,0,5.648    c0.78,0.78,1.802,1.171,2.824,1.171c1.022,0,2.044-0.39,2.824-1.171l7.989-7.989C200.124,264.581,200.123,262.054,198.563,260.493    z" fill="#1e2d33"/>
	</g>
</g>
<g>
	<g>
		<path d="M462.211,308.428c-1.56-1.561-4.088-1.561-5.648,0l-15.979,15.979c-1.56,1.56-1.56,4.088,0,5.649    c0.78,0.78,1.803,1.17,2.825,1.17c1.021,0,2.043-0.389,2.823-1.171l15.979-15.979    C463.772,312.516,463.771,309.989,462.211,308.428z" fill="#1e2d33"/>
	</g>
</g>
<g>
	<g>
		<path d="M406.286,364.354c-1.56-1.561-4.087-1.561-5.648,0l-15.979,15.979c-1.561,1.56-1.561,4.087,0,5.648    c0.78,0.78,1.802,1.17,2.824,1.17c1.021,0,2.044-0.39,2.824-1.17l15.979-15.979C407.847,368.442,407.846,365.915,406.286,364.354z    " fill="#1e2d33"/>
	</g>
</g>
<g>
	<g>
		<path d="M459.387,251.333c-2.209,0-3.995,1.787-3.995,3.995v55.925c0,2.208,1.786,3.995,3.995,3.995    c2.207,0,3.994-1.787,3.994-3.995v-55.925C463.381,253.12,461.594,251.333,459.387,251.333z" fill="#1e2d33"/>
	</g>
</g>
<g>
	<g>
		<path d="M454.222,372.344c-1.56-1.561-4.088-1.561-5.649,0l-7.989,7.989c-1.56,1.56-1.56,4.087,0,5.648    c0.78,0.78,1.803,1.17,2.825,1.17c1.021,0,2.043-0.39,2.824-1.17l7.989-7.989C455.782,376.432,455.782,373.905,454.222,372.344z" fill="#1e2d33"/>
	</g>
</g>
<g>
	<g>
		<path d="M459.387,363.183H411.45c-2.208,0-3.995,1.787-3.995,3.995c0,2.208,1.787,3.994,3.995,3.994h47.937    c2.207,0,3.994-1.786,3.994-3.994S461.594,363.183,459.387,363.183z" fill="#1e2d33"/>
	</g>
</g>
<g>
	<g>
		<path d="M462.211,420.28c-1.56-1.56-4.088-1.56-5.648,0l-15.979,15.979c-1.56,1.559-1.56,4.087,0,5.648    c0.78,0.78,1.803,1.17,2.825,1.17c1.021,0,2.043-0.39,2.823-1.169l15.979-15.979C463.772,424.369,463.772,421.841,462.211,420.28z    " fill="#1e2d33"/>
	</g>
</g>
<g>
	<g>
		<path d="M459.387,363.183c-2.209,0-3.995,1.787-3.995,3.995v55.926c0,2.207,1.786,3.994,3.995,3.994    c2.207,0,3.994-1.787,3.994-3.994v-55.926C463.381,364.97,461.594,363.183,459.387,363.183z" fill="#1e2d33"/>
	</g>
</g>
<g>
	<g>
		<path d="M403.462,331.226c-2.208,0-3.994,1.786-3.994,3.995v31.957c0,2.208,1.786,3.994,3.994,3.994s3.994-1.786,3.994-3.994    v-31.957C407.456,333.012,405.67,331.226,403.462,331.226z" fill="#1e2d33"/>
	</g>
</g>
<g>
	<g>
		<path d="M406.286,476.205c-1.56-1.561-4.087-1.561-5.648,0l-15.979,15.979c-1.561,1.56-1.561,4.088,0,5.648    c0.78,0.78,1.802,1.171,2.824,1.171c1.021,0,2.044-0.391,2.824-1.171l15.979-15.979    C407.847,480.293,407.846,477.766,406.286,476.205z" fill="#1e2d33"/>
	</g>
</g>
<g>
	<g>
		<path d="M403.462,443.077c-2.208,0-3.994,1.787-3.994,3.995v31.957c0,2.208,1.786,3.995,3.994,3.995s3.994-1.787,3.994-3.995    v-31.957C407.456,444.864,405.67,443.077,403.462,443.077z" fill="#1e2d33"/>
	</g>
</g>
<g>
	<g>
		<path d="M131.824,331.227c-2.208,0-3.995,1.786-3.995,3.995v39.946c0,2.208,1.787,3.995,3.995,3.995s3.995-1.787,3.995-3.995    v-39.946C135.819,333.013,134.032,331.227,131.824,331.227z" fill="#1e2d33"/>
	</g>
</g>
<g>
	<g>
		<path d="M187.742,275.302c-2.208,0-3.995,1.786-3.995,3.994v39.947c0,2.207,1.787,3.994,3.995,3.994    c2.208,0,3.994-1.787,3.995-3.994v-39.947C191.737,277.088,189.95,275.302,187.742,275.302z" fill="#1e2d33"/>
	</g>
</g>
<g>
	<g>
		<path d="M259.654,331.227c-2.208,0-3.995,1.786-3.995,3.995v39.946c0,2.208,1.787,3.995,3.995,3.995s3.994-1.787,3.994-3.995    v-39.946C263.648,333.013,261.862,331.227,259.654,331.227z" fill="#1e2d33"/>
	</g>
</g>
<g>
	<g>
		<path d="M131.824,443.077c-2.208,0-3.995,1.787-3.995,3.995v39.946c0,2.208,1.787,3.994,3.995,3.994s3.995-1.786,3.995-3.994    v-39.946C135.819,444.864,134.032,443.077,131.824,443.077z" fill="#1e2d33"/>
	</g>
</g>
<g>
	<g>
		<path d="M259.654,443.077c-2.208,0-3.995,1.787-3.995,3.995v39.946c0,2.208,1.787,3.994,3.995,3.994s3.994-1.786,3.994-3.994    v-39.946C263.648,444.864,261.862,443.077,259.654,443.077z" fill="#1e2d33"/>
	</g>
</g>
<g>
	<g>
		<path d="M315.579,275.302c-2.208,0-3.994,1.786-3.994,3.994v39.947c0,2.207,1.786,3.994,3.994,3.994s3.995-1.787,3.995-3.994    v-39.947C319.574,277.088,317.787,275.302,315.579,275.302z" fill="#1e2d33"/>
	</g>
</g>
<g>
	<g>
		<path d="M187.742,387.151c-2.208,0-3.995,1.787-3.995,3.995v39.946c0,2.209,1.787,3.995,3.995,3.995    c2.208,0,3.994-1.786,3.995-3.995v-39.946C191.737,388.938,189.95,387.151,187.742,387.151z" fill="#1e2d33"/>
	</g>
</g>
<g>
	<g>
		<path d="M315.579,387.151c-2.208,0-3.994,1.787-3.994,3.995v39.946c0,2.209,1.786,3.995,3.994,3.995s3.995-1.786,3.995-3.995    v-39.946C319.574,388.938,317.787,387.151,315.579,387.151z" fill="#1e2d33"/>
	</g>
</g>
<g>
	<g>
		<path d="M267.878,219.376H267.8c-2.209,0-3.956,1.786-3.956,3.994s1.833,3.995,4.034,3.995c2.207,0,3.994-1.787,3.994-3.995    S270.085,219.376,267.878,219.376z" fill="#1e2d33"/>
	</g>
</g>
<g>
	<g>
		<path d="M411.451,203.397H123.835c-2.208,0-3.994,1.786-3.994,3.994v31.958c0,2.207,1.786,3.994,3.994,3.994h287.616    c2.208,0,3.995-1.787,3.995-3.994v-31.958C415.446,205.183,413.659,203.397,411.451,203.397z M407.456,235.354H127.83v-23.968    h279.626V235.354z" fill="#1e2d33"/>
	</g>
</g>
<g>
	<g>
		<path d="M243.675,211.386c-2.208,0-3.995,1.786-3.995,3.994v15.979c0,2.208,1.787,3.995,3.995,3.995s3.995-1.787,3.995-3.995    V215.38C247.67,213.172,245.883,211.386,243.675,211.386z" fill="#1e2d33"/>
	</g>
</g>
<g>
	<g>
		<path d="M291.611,211.386c-2.208,0-3.995,1.786-3.995,3.994v15.979c0,2.208,1.787,3.995,3.995,3.995s3.995-1.787,3.995-3.995    V215.38C295.606,213.172,293.819,211.386,291.611,211.386z" fill="#1e2d33"/>
	</g>
</g>
<g>
	<g>
		<path d="M379.494,211.387c-6.608,0-11.984,5.375-11.984,11.983s5.376,11.984,11.984,11.984c6.608,0,11.983-5.376,11.983-11.984    C391.477,216.762,386.102,211.387,379.494,211.387z M379.494,227.365c-2.208,0-3.995-1.795-3.995-3.995s1.787-3.994,3.995-3.994    c2.2,0,3.994,1.794,3.994,3.994S381.694,227.365,379.494,227.365z" fill="#1e2d33"/>
	</g>
</g>
<g>
	<g>
		<path d="M155.793,211.387c-6.608,0-11.984,5.375-11.984,11.983s5.376,11.984,11.984,11.984c6.607,0,11.983-5.376,11.983-11.984    C167.776,216.762,162.401,211.387,155.793,211.387z M155.793,227.365c-2.204,0-3.995-1.795-3.995-3.995s1.791-3.994,3.995-3.994    c2.203,0,3.994,1.794,3.994,3.994S157.997,227.365,155.793,227.365z" fill="#1e2d33"/>
	</g>
</g>
<g>
	<g>
		<path d="M424.496,51.123C404.117,30.752,320.58,13.111,317.03,12.37c-1.295-0.25-2.684,0.133-3.636,1.084    c-0.952,0.953-1.365,2.326-1.084,3.644c0.741,3.543,18.374,87.095,38.753,107.474c10.665,10.666,25.029,16.533,39.455,16.533    c4.096,0,8.199-0.477,12.226-1.443c2.145-0.522,3.463-2.676,2.941-4.822c-0.514-2.145-2.707-3.417-4.813-2.949    c-15.487,3.753-32.418-1.217-44.16-12.967c-15.744-15.745-30.779-77.67-35.25-97.394c19.732,4.471,81.633,19.506,97.386,35.242    c11.742,11.742,16.711,28.665,12.982,44.16c-0.515,2.145,0.803,4.306,2.949,4.821c2.137,0.485,4.299-0.796,4.821-2.949    C443.978,84.625,438.188,64.815,424.496,51.123z" fill="#1e2d33"/>
	</g>
</g>
<g>
	<g>
		<path d="M448.979,132.094l-39.557-39.541c-1.56-1.561-4.087-1.56-5.648,0c-1.561,1.56-1.561,4.088,0,5.648l39.557,39.541    c0.779,0.78,1.802,1.171,2.824,1.171c1.021,0,2.044-0.391,2.824-1.171C450.54,136.183,450.54,133.655,448.979,132.094z" fill="#1e2d33"/>
	</g>
</g>
<g>
	<g>
		<path d="M437.665,143.392l-39.541-39.541c-1.559-1.561-4.087-1.56-5.648,0c-1.561,1.56-1.561,4.087,0,5.648l39.541,39.541    c0.78,0.78,1.802,1.17,2.824,1.17c1.023,0,2.044-0.39,2.824-1.17C439.226,147.48,439.226,144.953,437.665,143.392z" fill="#1e2d33"/>
	</g>
</g>
<g>
	<g>
		<path d="M454.627,126.445c-1.56-1.561-4.087-1.561-5.648,0l-22.61,22.595c-1.561,1.56-1.561,4.087,0,5.648    c0.78,0.78,1.802,1.171,2.824,1.171c1.022,0,2.044-0.391,2.824-1.171l22.61-22.595    C456.188,130.533,456.187,128.006,454.627,126.445z" fill="#1e2d33"/>
	</g>
</g>
<g>
	<g>
		<path d="M505.465,177.283l-50.838-50.838c-1.56-1.561-4.087-1.56-5.648,0c-1.561,1.56-1.561,4.087,0,5.648l50.838,50.839    c0.78,0.78,1.803,1.17,2.824,1.17c1.023,0,2.045-0.39,2.824-1.17C507.026,181.372,507.026,178.844,505.465,177.283z" fill="#1e2d33"/>
	</g>
</g>
<g>
	<g>
		<path d="M482.87,199.878l-50.854-50.838c-1.56-1.561-4.088-1.561-5.648,0c-1.561,1.56-1.561,4.087,0,5.648l50.854,50.839    c0.78,0.78,1.803,1.17,2.824,1.17c1.023,0,2.044-0.39,2.824-1.17C484.43,203.967,484.43,201.439,482.87,199.878z" fill="#1e2d33"/>
	</g>
</g>
<g>
	<g>
		<path d="M505.465,177.284c-1.559-1.56-4.087-1.56-5.648,0c-1.561,1.56-1.561,4.088-0.008,5.649c4.674,4.673,4.674,12.28,0,16.945    c-4.526,4.541-12.414,4.541-16.938,0c-1.56-1.56-4.088-1.56-5.649,0c-1.561,1.56-1.561,4.088-0.008,5.649    c3.776,3.776,8.793,5.859,14.13,5.859c5.328,0,10.346-2.083,14.121-5.858C513.244,197.749,513.244,185.079,505.465,177.284z" fill="#1e2d33"/>
	</g>
</g>
<g>
	<g>
		<path d="M409.422,92.553c-4.674-4.681-12.28-4.681-16.946,0c-2.263,2.255-3.511,5.259-3.511,8.466    c-0.008,3.198,1.24,6.217,3.511,8.48c0.78,0.78,1.802,1.17,2.824,1.17c1.023,0,2.044-0.39,2.825-1.171    c1.561-1.56,1.561-4.087,0-5.648c-0.757-0.757-1.17-1.764-1.17-2.832c0-1.061,0.413-2.06,1.17-2.817c1.56-1.56,4.088-1.56,5.649,0    c1.56,1.561,4.087,1.561,5.648,0C410.983,96.642,410.983,94.114,409.422,92.553z" fill="#1e2d33"/>
	</g>
</g>
<g>
</g>
<g>
</g>
<g>
</g>
<g>
</g>
<g>
</g>
<g>
</g>
<g>
</g>
<g>
</g>
<g>
</g>
<g>
</g>
<g>
</g>
<g>
</g>
<g>
</g>
<g>
</g>
<g>
</g>
</svg>
