<?xml version="1.0"?>
<svg xmlns="http://www.w3.org/2000/svg" xmlns:xlink="http://www.w3.org/1999/xlink" version="1.1" id="Capa_1" x="0px" y="0px" viewBox="0 0 511.337 511.337" style="enable-background:new 0 0 511.337 511.337;" xml:space="preserve" width="512px" height="512px" class=""><g><rect x="123.839" y="207.408" style="fill:#ED5564;" width="287.64" height="31.959" data-original="#ED5564" class=""/><g>
	<polygon style="fill:#F6BB42;" points="459.415,311.275 443.437,327.255 443.437,271.327 459.415,255.347  " data-original="#F6BB42" class=""/>
	<polygon style="fill:#F6BB42;" points="403.487,367.204 387.507,383.183 387.507,327.255 403.487,311.275  " data-original="#F6BB42" class=""/>
	<polygon style="fill:#F6BB42;" points="459.415,423.132 443.437,439.111 443.437,383.183 459.415,367.204  " data-original="#F6BB42" class=""/>
	<polygon style="fill:#F6BB42;" points="403.487,479.061 387.507,495.04 387.507,439.111 403.487,423.132  " data-original="#F6BB42" class=""/>
</g><g style="opacity:0.2;">
	<polygon points="459.415,311.275 443.437,327.255 443.437,271.327 459.415,255.347  " data-original="#000000" class=""/>
</g><g style="opacity:0.2;">
	<polygon points="403.487,367.204 387.507,383.183 387.507,327.255 403.487,311.275  " data-original="#000000" class=""/>
</g><g style="opacity:0.2;">
	<polygon points="459.415,423.132 443.437,439.111 443.437,383.183 459.415,367.204  " data-original="#000000" class=""/>
</g><g style="opacity:0.2;">
	<polygon points="403.487,479.061 387.507,495.04 387.507,439.111 403.487,423.132  " data-original="#000000" class=""/>
</g><g>
	<rect x="59.919" y="271.328" style="fill:#E8C459" width="383.51" height="55.928" data-original="#FFCE54" class="" data-old_color="#FFCE54"/>
	<rect x="3.995" y="327.258" style="fill:#E8C459" width="383.51" height="55.928" data-original="#FFCE54" class="" data-old_color="#FFCE54"/>
	<rect x="59.919" y="383.178" style="fill:#E8C459" width="383.51" height="55.929" data-original="#FFCE54" class="" data-old_color="#FFCE54"/>
	<rect x="3.995" y="439.108" style="fill:#E8C459" width="383.51" height="55.929" data-original="#FFCE54" class="" data-old_color="#FFCE54"/>
</g><g>
	<polygon style="fill:#F6BB42;" points="443.437,271.327 59.923,271.327 75.903,255.347 459.415,255.347  " data-original="#F6BB42" class=""/>
	<polygon style="fill:#F6BB42;" points="59.923,327.255 3.995,327.255 19.974,311.275 59.923,311.275  " data-original="#F6BB42" class=""/>
	<polygon style="fill:#F6BB42;" points="59.923,439.111 3.995,439.111 19.974,423.132 59.923,423.132  " data-original="#F6BB42" class=""/>
	<polygon style="fill:#F6BB42;" points="403.487,367.204 459.415,367.204 443.437,383.183 387.507,383.183  " data-original="#F6BB42" class=""/>
</g><g style="opacity:0.5;">
	<rect x="59.919" y="271.328" style="fill:#FFFFFF;" width="7.99" height="55.928" data-original="#FFFFFF" class=""/>
</g><g style="opacity:0.5;">
	<rect x="187.759" y="271.328" style="fill:#FFFFFF;" width="7.99" height="55.928" data-original="#FFFFFF" class=""/>
</g><g style="opacity:0.5;">
	<rect x="315.599" y="271.328" style="fill:#FFFFFF;" width="7.99" height="55.928" data-original="#FFFFFF" class=""/>
</g><g style="opacity:0.5;">
	<rect x="59.919" y="383.178" style="fill:#FFFFFF;" width="7.99" height="55.929" data-original="#FFFFFF" class=""/>
</g><g style="opacity:0.5;">
	<rect x="3.995" y="327.258" style="fill:#FFFFFF;" width="7.99" height="55.928" data-original="#FFFFFF" class=""/>
</g><g style="opacity:0.5;">
	<rect x="131.829" y="327.258" style="fill:#FFFFFF;" width="7.99" height="55.928" data-original="#FFFFFF" class=""/>
</g><g style="opacity:0.2;">
	<rect x="123.839" y="327.258" width="7.99" height="55.928" data-original="#000000" class=""/>
</g><g style="opacity:0.2;">
	<rect x="251.679" y="327.258" width="7.99" height="55.928" data-original="#000000" class=""/>
</g><g style="opacity:0.2;">
	<rect x="379.519" y="327.258" width="7.988" height="55.928" data-original="#000000" class=""/>
</g><g style="opacity:0.2;">
	<rect x="435.459" y="383.178" width="7.99" height="55.929" data-original="#000000" class=""/>
</g><g style="opacity:0.2;">
	<rect x="307.609" y="383.178" width="7.988" height="55.929" data-original="#000000" class=""/>
</g><g style="opacity:0.2;">
	<rect x="179.759" y="383.178" width="7.99" height="55.929" data-original="#000000" class=""/>
</g><g style="opacity:0.2;">
	<rect x="123.839" y="439.108" width="7.99" height="55.929" data-original="#000000" class=""/>
</g><g style="opacity:0.2;">
	<rect x="251.679" y="439.108" width="7.99" height="55.929" data-original="#000000" class=""/>
</g><g style="opacity:0.2;">
	<rect x="379.519" y="439.108" width="7.988" height="55.929" data-original="#000000" class=""/>
</g><g style="opacity:0.2;">
	<rect x="435.459" y="271.328" width="7.99" height="55.928" data-original="#000000" class=""/>
</g><g style="opacity:0.2;">
	<rect x="307.609" y="271.328" width="7.988" height="55.928" data-original="#000000" class=""/>
</g><g style="opacity:0.2;">
	<rect x="179.759" y="271.328" width="7.99" height="55.928" data-original="#000000" class=""/>
</g><g style="opacity:0.5;">
	<rect x="259.669" y="327.258" style="fill:#FFFFFF;" width="7.994" height="55.928" data-original="#FFFFFF" class=""/>
</g><g style="opacity:0.5;">
	<rect x="3.995" y="439.108" style="fill:#FFFFFF;" width="7.99" height="55.929" data-original="#FFFFFF" class=""/>
</g><g style="opacity:0.5;">
	<rect x="131.829" y="439.108" style="fill:#FFFFFF;" width="7.99" height="55.929" data-original="#FFFFFF" class=""/>
</g><g style="opacity:0.5;">
	<rect x="259.669" y="439.108" style="fill:#FFFFFF;" width="7.994" height="55.929" data-original="#FFFFFF" class=""/>
</g><g style="opacity:0.5;">
	<rect x="187.759" y="383.178" style="fill:#FFFFFF;" width="7.99" height="55.929" data-original="#FFFFFF" class=""/>
</g><g style="opacity:0.5;">
	<rect x="315.599" y="383.178" style="fill:#FFFFFF;" width="7.99" height="55.929" data-original="#FFFFFF" class=""/>
</g><g style="opacity:0.5;">
	<polygon style="fill:#FFFFFF;" points="211.729,255.347 203.739,255.347 187.759,271.327 195.749,271.327  " data-original="#FFFFFF" class=""/>
</g><g style="opacity:0.5;">
	<polygon style="fill:#FFFFFF;" points="83.893,255.347 75.903,255.347 59.923,271.327 67.913,271.327  " data-original="#FFFFFF" class=""/>
</g><g style="opacity:0.5;">
	<polygon style="fill:#FFFFFF;" points="339.569,255.347 331.579,255.347 315.599,271.327 323.589,271.327  " data-original="#FFFFFF" class=""/>
</g><g style="opacity:0.2;">
	<polygon points="331.579,255.347 323.589,255.347 307.61,271.327 315.599,271.327  " data-original="#000000" class=""/>
</g><g style="opacity:0.2;">
	<polygon points="203.739,255.347 195.749,255.347 179.77,271.327 187.759,271.327  " data-original="#000000" class=""/>
</g><g>
	<path style="fill:#F5F5F5" d="M163.79,223.387c0,4.417-3.578,7.99-7.99,7.99s-7.99-3.574-7.99-7.99s3.578-7.989,7.99-7.989   S163.79,218.971,163.79,223.387z" data-original="#A0D468" class="active-path" data-old_color="#f5f5f5"/>
	<path style="fill:#F5F5F5" d="M387.507,223.387c0,4.417-3.58,7.99-7.988,7.99c-4.418,0-7.99-3.574-7.99-7.99   s3.572-7.989,7.99-7.989C383.927,215.398,387.507,218.971,387.507,223.387z" data-original="#A0D468" class="active-path" data-old_color="#f5f5f5"/>
	<rect x="243.689" y="207.408" style="fill:#F5F5F5" width="47.942" height="31.959" data-original="#A0D468" class="active-path" data-old_color="#f5f5f5"/>
</g><path style="fill:#F5F5F5" d="M422.368,54.627c-18.717-18.718-106.137-38.342-106.137-38.342s19.623,87.419,38.342,106.138  c18.719,18.718,49.078,18.718,67.795,0C441.087,103.705,441.087,73.345,422.368,54.627z" data-original="#E6E9ED" class="" data-old_color="#f5f5f5"/><path style="fill:#FFFFFF;" d="M360.222,116.774c-15.418-15.425-31.428-77.361-36.594-98.74c-4.58-1.108-7.396-1.748-7.396-1.748  s19.623,87.419,38.342,106.138c18.719,18.718,49.078,18.718,67.795,0c0.953-0.96,1.818-1.958,2.678-2.973  C406.21,135.407,377.989,134.541,360.222,116.774z" data-original="#FFFFFF" class=""/><rect x="411.31" y="89.386" transform="matrix(-0.7071 0.7071 -0.7071 -0.7071 800.2003 -92.7283)" style="fill:#CCD1D9;" width="15.989" height="59.954" data-original="#CCD1D9" class=""/><path style="fill:#ED5564;" d="M429.22,151.877l50.85,50.849l0.008-0.008c6.24,6.242,16.361,6.242,22.596,0  c6.242-6.234,6.242-16.354,0-22.596l-50.85-50.849L429.22,151.877z" data-original="#ED5564" class=""/><g style="opacity:0.3;">
	<path style="fill:#FFFFFF;" d="M485.726,197.07l-0.008,0.008l-50.85-50.849l-5.648,5.649l50.85,50.849l0.008-0.008   c6.24,6.242,16.361,6.242,22.596,0c0.982-0.975,1.756-2.076,2.426-3.214C498.974,203.093,490.983,202.329,485.726,197.07z" data-original="#FFFFFF" class=""/>
</g><rect x="412.495" y="92.231" transform="matrix(-0.7071 0.7071 -0.7071 -0.7071 797.4046 -85.8793)" style="fill:#FFFFFF;" width="7.988" height="59.954" data-original="#FFFFFF" class=""/><g style="opacity:0.3;">
	<rect x="123.839" y="207.408" style="fill:#FFFFFF;" width="7.99" height="31.959" data-original="#FFFFFF" class=""/>
</g><g style="opacity:0.4;">
	<rect x="243.689" y="207.408" style="fill:#FFFFFF;" width="7.989" height="31.959" data-original="#FFFFFF" class=""/>
</g><g style="opacity:0.2;">
	<rect x="283.639" y="207.408" width="7.99" height="31.959" data-original="#000000" class=""/>
</g><g style="opacity:0.3;">
	<rect x="403.489" y="207.408" width="7.99" height="31.959" data-original="#000000" class=""/>
</g><g>
	<path style="fill:#3A3847" d="M387.507,499.034H3.999c-2.208,0-3.995-1.786-3.995-3.994L0,439.111c0-1.062,0.421-2.075,1.17-2.824   s1.764-1.171,2.824-1.171h383.512c2.209,0,3.996,1.787,3.996,3.995v55.929C391.503,497.248,389.716,499.034,387.507,499.034z    M7.994,491.045h375.519v-47.938H7.99L7.994,491.045z" data-original="#3A3847" class=""/>
	<path style="fill:#3A3847" d="M443.429,443.106H59.927c-2.208,0-3.995-1.787-3.995-3.995l-0.004-55.929   c0-1.061,0.421-2.075,1.17-2.824s1.763-1.17,2.825-1.17l127.836-0.008l255.677,0.008c1.061,0,2.074,0.421,2.824,1.17   c0.748,0.749,1.17,1.764,1.17,2.824l-0.008,55.929C447.423,441.319,445.636,443.106,443.429,443.106z M63.922,435.116h375.51   l0.008-47.938H63.919L63.922,435.116z" data-original="#3A3847" class=""/>
	<path style="fill:#3A3847" d="M387.507,387.178H3.999c-2.208,0-3.995-1.786-3.995-3.995L0,327.255c0-1.061,0.421-2.075,1.17-2.824   s1.764-1.171,2.824-1.171l127.836-0.008l255.676,0.008c2.209,0,3.996,1.787,3.996,3.995v55.928   C391.503,385.392,389.716,387.178,387.507,387.178z M7.994,379.189h375.519v-47.938H7.99L7.994,379.189z" data-original="#3A3847" class=""/>
	<path style="fill:#3A3847" d="M315.599,331.25L315.599,331.25H59.927c-2.208,0-3.995-1.787-3.995-3.995l-0.004-55.928   c0-1.062,0.421-2.076,1.17-2.825s1.763-1.17,2.825-1.17h383.513c1.061,0,2.074,0.421,2.824,1.17c0.748,0.749,1.17,1.764,1.17,2.825   v55.92c0,2.208-1.787,3.995-3.994,3.995L315.599,331.25z M63.922,323.26l375.518-0.008v-47.931H63.919L63.922,323.26z" data-original="#3A3847" class=""/>
	<path style="fill:#3A3847" d="M443.437,275.321c-1.023,0-2.045-0.39-2.826-1.17c-1.561-1.561-1.561-4.089,0-5.649l7.99-7.989   c1.561-1.561,4.09-1.561,5.648,0c1.561,1.561,1.561,4.088,0,5.648l-7.988,7.99C445.48,274.932,444.458,275.321,443.437,275.321z" data-original="#3A3847" class=""/>
	<path style="fill:#3A3847" d="M59.923,275.321c-1.022,0-2.044-0.39-2.825-1.17c-1.56-1.561-1.56-4.089,0-5.649l15.979-15.98   c1.561-1.561,4.088-1.561,5.649,0s1.561,4.089,0,5.65l-15.979,15.979C61.967,274.932,60.945,275.321,59.923,275.321z" data-original="#3A3847" class=""/>
	<path style="fill:#3A3847" d="M459.415,259.342H75.903c-2.208,0-3.995-1.786-3.995-3.995c0-2.208,1.787-3.995,3.995-3.995h383.512   c2.209,0,3.994,1.786,3.994,3.995C463.409,257.556,461.624,259.342,459.415,259.342z" data-original="#3A3847" class=""/>
	<path style="fill:#3A3847" d="M3.995,331.25c-1.022,0-2.044-0.391-2.824-1.171c-1.561-1.561-1.561-4.088,0-5.648l15.983-15.979   c1.561-1.561,4.089-1.561,5.649,0c1.561,1.561,1.561,4.088,0,5.648L6.819,330.079C6.039,330.859,5.017,331.25,3.995,331.25z" data-original="#3A3847" class=""/>
	<path style="fill:#3A3847" d="M51.933,315.271H19.978c-2.208,0-3.995-1.787-3.995-3.995s1.787-3.995,3.995-3.995h31.955   c2.208,0,3.995,1.787,3.995,3.995S54.142,315.271,51.933,315.271z" data-original="#3A3847" class=""/>
	<path style="fill:#3A3847" d="M3.995,443.106c-1.022,0-2.044-0.391-2.824-1.17c-1.561-1.561-1.561-4.089,0-5.649l15.983-15.979   c1.561-1.561,4.089-1.561,5.649,0c1.561,1.561,1.561,4.088,0,5.648L6.819,441.937C6.039,442.716,5.017,443.106,3.995,443.106z" data-original="#3A3847" class=""/>
	<path style="fill:#3A3847" d="M51.937,427.127H19.978c-2.208,0-3.995-1.787-3.995-3.995s1.787-3.994,3.995-3.994h31.959   c2.208,0,3.995,1.786,3.995,3.994S54.146,427.127,51.937,427.127z" data-original="#3A3847" class=""/>
	<path style="fill:#3A3847" d="M315.599,275.321c-1.021,0-2.043-0.39-2.824-1.17c-1.561-1.561-1.561-4.089,0-5.649l7.99-7.989   c1.561-1.561,4.088-1.561,5.648,0s1.561,4.088,0,5.648l-7.988,7.99C317.644,274.932,316.622,275.321,315.599,275.321z" data-original="#3A3847" class=""/>
	<path style="fill:#3A3847" d="M187.759,275.321c-1.022,0-2.044-0.39-2.824-1.17c-1.561-1.561-1.561-4.089,0-5.649l7.989-7.989   c1.561-1.561,4.089-1.561,5.649,0s1.561,4.088,0,5.648l-7.99,7.99C189.804,274.932,188.782,275.321,187.759,275.321z" data-original="#3A3847" class=""/>
	<path style="fill:#3A3847" d="M443.437,331.242c-1.023,0-2.045-0.391-2.826-1.171c-1.561-1.561-1.561-4.088,0-5.648l15.98-15.972   c1.561-1.561,4.088-1.561,5.648,0s1.561,4.088,0,5.648l-15.979,15.972C445.48,330.852,444.458,331.242,443.437,331.242z" data-original="#3A3847" class=""/>
	<path style="fill:#3A3847" d="M387.507,387.178c-1.021,0-2.043-0.39-2.824-1.17c-1.561-1.561-1.561-4.089,0-5.649l15.98-15.979   c1.561-1.561,4.088-1.561,5.648,0s1.561,4.089,0,5.649l-15.98,15.979C389.552,386.788,388.53,387.178,387.507,387.178z" data-original="#3A3847" class=""/>
	<path style="fill:#3A3847" d="M459.415,315.271L459.415,315.271c-2.207,0-3.994-1.787-3.994-3.995v-55.929   c0-2.208,1.795-3.995,3.994-3.995l0,0c2.209,0,3.994,1.786,3.994,3.995v55.929C463.409,313.483,461.624,315.271,459.415,315.271z" data-original="#3A3847" class=""/>
	<path style="fill:#3A3847" d="M443.437,387.178c-1.023,0-2.045-0.39-2.826-1.17c-1.561-1.561-1.561-4.089,0-5.649l7.99-7.989   c1.561-1.561,4.09-1.561,5.648,0c1.561,1.561,1.561,4.089,0,5.649l-7.988,7.989C445.48,386.788,444.458,387.178,443.437,387.178z" data-original="#3A3847" class=""/>
	<path style="fill:#3A3847" d="M459.415,371.198h-47.938c-2.209,0-3.996-1.786-3.996-3.994c0-2.209,1.787-3.995,3.996-3.995h47.938   c2.209,0,3.994,1.786,3.994,3.995C463.409,369.412,461.624,371.198,459.415,371.198z" data-original="#3A3847" class=""/>
	<path style="fill:#3A3847" d="M443.429,443.106c-1.023,0-2.045-0.391-2.826-1.17c-1.561-1.561-1.561-4.089,0-5.649l15.988-15.979   c1.561-1.561,4.088-1.561,5.648,0s1.561,4.088,0,5.648l-15.986,15.98C445.472,442.716,444.45,443.106,443.429,443.106z" data-original="#3A3847" class=""/>
	<path style="fill:#3A3847" d="M459.415,427.127L459.415,427.127c-2.207,0-3.994-1.787-3.994-3.995v-55.928   c0-2.209,1.795-3.995,3.994-3.995l0,0c2.209,0,3.994,1.786,3.994,3.995v55.928C463.409,425.34,461.624,427.127,459.415,427.127z" data-original="#3A3847" class=""/>
	<path style="fill:#3A3847" d="M403.487,371.198L403.487,371.198c-2.209,0-3.996-1.786-3.996-3.994v-31.959   c0-2.209,1.795-3.995,3.996-3.995l0,0c2.207,0,3.994,1.786,3.994,3.995v31.959C407.481,369.412,405.687,371.198,403.487,371.198z" data-original="#3A3847" class=""/>
	<path style="fill:#3A3847" d="M387.507,499.034c-1.021,0-2.043-0.39-2.824-1.17c-1.561-1.561-1.561-4.088,0-5.648l15.98-15.98   c1.561-1.561,4.088-1.561,5.648,0s1.561,4.089,0,5.649l-15.98,15.979C389.552,498.645,388.53,499.034,387.507,499.034z" data-original="#3A3847" class=""/>
	<path style="fill:#3A3847" d="M403.487,483.056c-2.209,0-3.996-1.787-3.996-3.995v-31.959c0-2.208,1.787-3.995,3.996-3.995   c2.207,0,3.994,1.787,3.994,3.995v31.959C407.481,481.269,405.694,483.056,403.487,483.056z" data-original="#3A3847" class=""/>
	<path style="fill:#3A3847" d="M131.835,379.189c-2.204,0-3.995-1.787-3.995-3.995l-0.004-39.948c0-2.209,1.787-3.995,3.995-3.995   c2.204,0,3.995,1.786,3.995,3.995l0.004,39.948C135.83,377.401,134.043,379.189,131.835,379.189z" data-original="#3A3847" class=""/>
	<path style="fill:#3A3847" d="M187.752,323.26L187.752,323.26c-2.208,0-3.995-1.786-3.995-3.995l0.004-39.948   c0-2.208,1.791-3.995,3.995-3.995l0,0c2.208,0,3.995,1.787,3.995,3.995l-0.004,39.948   C191.747,321.474,189.956,323.26,187.752,323.26z" data-original="#3A3847" class=""/>
	<path style="fill:#3A3847" d="M259.667,379.189L259.667,379.189c-2.207,0-3.995-1.787-3.995-3.995l0.004-39.948   c0-2.209,1.792-3.995,3.995-3.995l0,0c2.209,0,3.996,1.786,3.996,3.995v39.948C263.667,377.401,261.872,379.189,259.667,379.189z" data-original="#3A3847" class=""/>
	<path style="fill:#3A3847" d="M131.831,491.045c-2.208,0-3.995-1.786-3.995-3.995v-39.948c0-2.208,1.787-3.995,3.995-3.995   s3.995,1.787,3.995,3.995v39.948C135.826,489.259,134.039,491.045,131.831,491.045z" data-original="#3A3847" class=""/>
	<path style="fill:#3A3847" d="M259.667,491.045L259.667,491.045c-2.207,0-3.995-1.786-3.995-3.995l0.004-39.948   c0-2.208,1.792-3.995,3.995-3.995l0,0c2.209,0,3.996,1.787,3.996,3.995v39.948C263.667,489.259,261.872,491.045,259.667,491.045z" data-original="#3A3847" class=""/>
	<path style="fill:#3A3847" d="M315.599,323.26L315.599,323.26c-2.207,0-3.994-1.786-3.994-3.995v-39.948   c0-2.208,1.795-3.995,3.994-3.995l0,0c2.209,0,3.996,1.787,3.996,3.995v39.948C319.595,321.474,317.8,323.26,315.599,323.26z" data-original="#3A3847" class=""/>
	<path style="fill:#3A3847" d="M187.752,435.116L187.752,435.116c-2.208,0-3.995-1.786-3.995-3.994l0.004-39.949   c0-2.208,1.791-3.995,3.995-3.995l0,0c2.208,0,3.995,1.787,3.995,3.995l-0.004,39.949   C191.747,433.33,189.956,435.116,187.752,435.116z" data-original="#3A3847" class=""/>
	<path style="fill:#3A3847" d="M315.599,435.116L315.599,435.116c-2.207,0-3.994-1.786-3.994-3.994v-39.949   c0-2.208,1.795-3.995,3.994-3.995l0,0c2.209,0,3.996,1.787,3.996,3.995v39.949C319.595,433.33,317.8,435.116,315.599,435.116z" data-original="#3A3847" class=""/>
	<path style="fill:#3A3847" d="M267.903,227.382c-2.209,0-4.035-1.787-4.035-3.995s1.748-3.995,3.957-3.995h0.078   c2.207,0,3.994,1.787,3.994,3.995C271.898,225.596,270.11,227.382,267.903,227.382z" data-original="#3A3847" class=""/>
	<path style="fill:#3A3847" d="M411.478,243.362H123.841c-1.061,0-2.075-0.421-2.824-1.17s-1.171-1.764-1.171-2.825l0.004-31.959   c0-2.208,1.791-3.995,3.995-3.995h287.632c2.207,0,3.994,1.787,3.994,3.995v31.959   C415.472,241.575,413.685,243.362,411.478,243.362z M127.836,235.372h279.645v-23.969H127.84L127.836,235.372z" data-original="#3A3847" class=""/>
	<path style="fill:#3A3847" d="M243.692,235.372c-2.205,0-3.995-1.787-3.995-3.995l-0.004-15.979c0-2.208,1.787-3.995,3.995-3.995   c2.204,0,3.995,1.787,3.995,3.995l0.004,15.979C247.687,233.585,245.9,235.372,243.692,235.372z" data-original="#3A3847" class=""/>
	<path style="fill:#3A3847" d="M291.63,235.372L291.63,235.372c-2.207,0-3.994-1.787-3.994-3.995v-15.979   c0-2.208,1.795-3.995,3.994-3.995l0,0c2.209,0,3.996,1.787,3.996,3.995v15.979C295.626,233.585,293.831,235.372,291.63,235.372z" data-original="#3A3847" class=""/>
	<path style="fill:#3A3847" d="M379.519,235.372c-3.199,0-6.211-1.249-8.475-3.511c-2.262-2.263-3.512-5.274-3.512-8.474   c0-3.207,1.25-6.218,3.512-8.481c4.525-4.502,12.43-4.51,16.955,0.008c2.262,2.263,3.504,5.274,3.504,8.473   C391.503,229.997,386.126,235.372,379.519,235.372z M379.519,219.393c-1.07,0-2.076,0.414-2.826,1.17   c-0.756,0.749-1.17,1.748-1.17,2.824c0,1.069,0.414,2.068,1.17,2.825c2.311,2.317,6.812,0.444,6.82-2.825   c0-1.068-0.414-2.075-1.17-2.824C381.593,219.806,380.587,219.393,379.519,219.393z" data-original="#3A3847" class=""/>
	<path style="fill:#3A3847" d="M155.804,235.372c-6.604,0-11.984-5.375-11.988-11.993c0-6.601,5.376-11.977,11.984-11.977   c6.604,0,11.984,5.376,11.988,11.984C167.785,229.997,162.405,235.372,155.804,235.372z M155.8,219.393   c-2.204,0-3.995,1.787-3.995,3.987c0,2.208,1.795,4.003,3.999,4.003c2.2,0,3.995-1.794,3.995-3.995   C159.799,221.187,158.004,219.393,155.8,219.393z" data-original="#3A3847" class=""/>
	<path style="fill:#3A3847" d="M390.542,141.118c-14.426,0-28.791-5.867-39.457-16.533   c-20.379-20.38-38.021-103.937-38.762-107.479c-0.273-1.318,0.133-2.692,1.084-3.644c0.951-0.952,2.348-1.334,3.645-1.085   c3.549,0.741,87.09,18.383,107.463,38.755c13.701,13.701,19.49,33.504,15.105,51.684c-0.516,2.154-2.676,3.433-4.814,2.95   c-2.145-0.523-3.463-2.677-2.949-4.822c3.738-15.496-1.24-32.419-12.99-44.162c-15.738-15.745-77.658-30.773-97.383-35.244   c4.471,19.725,19.506,81.653,35.25,97.399c11.744,11.75,28.668,16.721,44.154,12.968c2.146-0.468,4.309,0.803,4.822,2.949   c0.523,2.146-0.795,4.299-2.941,4.822C398.743,140.642,394.64,141.118,390.542,141.118z" data-original="#3A3847" class=""/>
	<path style="fill:#3A3847" d="M446.183,138.925c-1.023,0-2.045-0.39-2.824-1.17L403.8,98.212c-1.561-1.56-1.561-4.088,0-5.649   s4.088-1.561,5.648,0l39.559,39.543c1.561,1.561,1.561,4.089,0,5.649C448.226,138.536,447.204,138.925,446.183,138.925z" data-original="#3A3847" class=""/>
	<path style="fill:#3A3847" d="M434.868,150.223c-1.021,0-2.043-0.39-2.824-1.17l-39.543-39.543c-1.561-1.561-1.561-4.089,0-5.649   s4.088-1.561,5.648,0l39.543,39.543c1.561,1.561,1.561,4.089,0,5.649C436.913,149.834,435.892,150.223,434.868,150.223z" data-original="#3A3847" class=""/>
	<path style="fill:#3A3847" d="M429.22,155.873c-1.021,0-2.045-0.39-2.824-1.17c-1.561-1.561-1.561-4.088,0-5.649l22.611-22.596   c1.561-1.561,4.088-1.561,5.648,0c1.56,1.561,1.561,4.088,0,5.649l-22.611,22.596C431.265,155.482,430.241,155.873,429.22,155.873z   " data-original="#3A3847" class=""/>
	<path style="fill:#3A3847" d="M502.673,184.118c-1.023,0-2.045-0.39-2.824-1.17l-50.842-50.841c-1.561-1.561-1.561-4.088,0-5.649   c1.561-1.561,4.088-1.561,5.648,0l50.842,50.841c1.561,1.561,1.561,4.088,0,5.649C504.716,183.728,503.694,184.118,502.673,184.118   z" data-original="#3A3847" class=""/>
	<path style="fill:#3A3847" d="M480.077,206.713c-1.023,0-2.045-0.39-2.826-1.17l-50.855-50.841c-1.561-1.561-1.561-4.088,0-5.649   s4.088-1.561,5.648,0l50.857,50.841c1.561,1.561,1.561,4.089,0,5.649C482.12,206.324,481.099,206.713,480.077,206.713z" data-original="#3A3847" class=""/>
	<path style="fill:#3A3847" d="M491.374,211.403c-5.336,0-10.346-2.083-14.123-5.859c-1.561-1.561-1.561-4.089,0-5.649   s4.098-1.561,5.658,0c4.518,4.541,12.406,4.541,16.939,0c4.672-4.666,4.672-12.273,0-16.947c-1.561-1.561-1.561-4.088,0-5.649   s4.096-1.561,5.656,0c7.779,7.794,7.779,20.466-0.008,28.245C501.728,209.32,496.712,211.403,491.374,211.403z" data-original="#3A3847" class=""/>
	<path style="fill:#3A3847" d="M395.325,110.68c-1.021,0-2.045-0.39-2.824-1.17c-2.271-2.271-3.52-5.282-3.512-8.497   c0-3.199,1.248-6.203,3.52-8.458c2.256-2.255,5.268-3.503,8.465-3.503l0,0c3.207,0,6.211,1.248,8.482,3.511   c1.553,1.561,1.553,4.089-0.008,5.649c-1.561,1.561-4.088,1.561-5.648,0c-0.758-0.757-1.756-1.17-2.826-1.17l0,0   c-1.068,0-2.066,0.414-2.824,1.17c-0.756,0.75-1.17,1.748-1.17,2.817s0.414,2.075,1.17,2.832c1.561,1.561,1.561,4.089,0,5.649   C397.37,110.291,396.347,110.68,395.325,110.68z" data-original="#3A3847" class=""/>
</g></g> </svg>
